<?xml version="1.0" encoding="UTF-8"?>
<!DOCTYPE svg PUBLIC "-//W3C//DTD SVG 1.1//EN" "http://www.w3.org/Graphics/SVG/1.1/DTD/svg11.dtd">
<svg xmlns="http://www.w3.org/2000/svg" version="1.1" width="512px" height="512px" style="shape-rendering:geometricPrecision; text-rendering:geometricPrecision; image-rendering:optimizeQuality; fill-rule:evenodd; clip-rule:evenodd" xmlns:xlink="http://www.w3.org/1999/xlink">
<g><path style="opacity:1" fill="#000000" d="M -0.5,-0.5 C 170.167,-0.5 340.833,-0.5 511.5,-0.5C 511.5,170.167 511.5,340.833 511.5,511.5C 340.833,511.5 170.167,511.5 -0.5,511.5C -0.5,340.833 -0.5,170.167 -0.5,-0.5 Z"/></g>
<g><path style="opacity:1" fill="#00a900" d="M 55.5,91.5 C 139.5,91.5 223.5,91.5 307.5,91.5C 307.5,201.5 307.5,311.5 307.5,421.5C 223.5,421.5 139.5,421.5 55.5,421.5C 55.5,311.5 55.5,201.5 55.5,91.5 Z"/></g>
<g><path style="opacity:1" fill="#004900" d="M 55.5,91.5 C 139.665,90.5007 223.998,90.1673 308.5,90.5C 308.833,201.001 308.499,311.335 307.5,421.5C 307.5,311.5 307.5,201.5 307.5,91.5C 223.5,91.5 139.5,91.5 55.5,91.5 Z"/></g>
<g><path style="opacity:1" fill="#006700" d="M 343.5,135.5 C 340.5,135.5 337.5,135.5 334.5,135.5C 334.5,217.167 334.5,298.833 334.5,380.5C 338.167,380.5 341.833,380.5 345.5,380.5C 341.702,381.483 337.702,381.817 333.5,381.5C 333.5,299.167 333.5,216.833 333.5,134.5C 337.042,134.187 340.375,134.521 343.5,135.5 Z"/></g>
<g><path style="opacity:1" fill="#00a900" d="M 343.5,135.5 C 383.878,141.097 415.711,160.43 439,193.5C 453.555,218.944 458.888,246.277 455,275.5C 448.236,318.864 425.069,350.03 385.5,369C 372.692,374.771 359.359,378.604 345.5,380.5C 341.833,380.5 338.167,380.5 334.5,380.5C 334.5,298.833 334.5,217.167 334.5,135.5C 337.5,135.5 340.5,135.5 343.5,135.5 Z"/></g>
</svg>
