<?xml version="1.0" encoding="UTF-8"?>
<svg viewBox="0 0 682.9375 721.9375" xmlns="http://www.w3.org/2000/svg" xmlns:xlink="http://www.w3.org/1999/xlink">
 <defs>
  <linearGradient id="a">
   <stop stop-color="#f9faee" offset="0"/>
   <stop stop-color="#f9faee" stop-opacity="0" offset="1"/>
  </linearGradient>
  <linearGradient id="g" x2="0" y1="1415.8" y2="1258.1" gradientUnits="userSpaceOnUse">
   <stop stop-color="#ebece1" offset="0"/>
   <stop stop-color="#64645f" offset="1"/>
  </linearGradient>
  <linearGradient id="f" x2="0" y1="1389.9" y2="1417.3" gradientUnits="userSpaceOnUse">
   <stop stop-color="#b0b0ab" offset="0"/>
   <stop stop-color="#e8e9de" offset=".14293"/>
   <stop stop-color="#f9faee" stop-opacity=".44314" offset=".5232"/>
   <stop stop-color="#e6e7dc" offset=".86266"/>
   <stop stop-color="#afb0a7" offset="1"/>
  </linearGradient>
  <linearGradient id="e" x1="97.89" x2="123.43" gradientUnits="userSpaceOnUse" xlink:href="#a"/>
  <linearGradient id="d" x1="-660.75" x2="-635.21" gradientUnits="userSpaceOnUse" xlink:href="#a"/>
  <radialGradient id="c" cx="363.2" cy="1423.2" r="132.48" gradientTransform="matrix(.80168 0 0 .2822 72.032 1057.1)" gradientUnits="userSpaceOnUse">
   <stop stop-color="#d1d2c8" offset="0"/>
   <stop stop-color="#f9faee" offset="1"/>
  </radialGradient>
  <radialGradient id="b" cx="228.07" cy="1122.4" r="283.47" gradientTransform="matrix(2.0091 0 1.4362e-6 1.0654 -230.15 -59.834)" gradientUnits="userSpaceOnUse">
   <stop stop-color="#d5f6ff" offset="0"/>
   <stop stop-color="#acf" stop-opacity="0" offset="1"/>
  </radialGradient>
 </defs>
 <g transform="translate(-32.814 -850.92)">
  <path transform="translate(33.783 103.29)" d="m8.625 749.12c-4.4765 0-8.0938 4.1821-8.0938 9.4062v587.94c0 5.2241 3.6172 9.4374 8.0938 9.4374h93.531v109.62c0 1.3877 2.5536 2.5313 5.7188 2.5313h469.31c3.1652 0 5.7188-1.1436 5.7188-2.5313v-109.62h89.469c4.4765 0 8.0938-4.2133 8.0938-9.4374v-587.94c0-5.2242-3.6172-9.4062-8.0938-9.4062h-663.75z" fill="#fff" fill-rule="evenodd" stroke="#8c8d86" stroke-width="3"/>
  <path transform="translate(33.783 103.29)" d="m102.16 1355.9v109.62c0 1.3876 2.5536 2.5313 5.7188 2.5313h469.31c3.1652 0 5.7188-1.1437 5.7188-2.5313v-109.62h-480.75z" fill="url(#g)" fill-rule="evenodd"/>
  <path d="m141.54 1520.1h469.53a5.7158 0.79831 0 0 1 5.7158 0.79831v49.772a5.7158 0.79831 0 0 1 -5.7158 0.79831h-469.53a5.7158 0.79831 0 0 1 -5.7158 -0.79831v-49.772a5.7158 0.79831 0 0 1 5.7158 -0.79831" fill="#f9faee" fill-rule="evenodd"/>
  <path d="m211.66 1459.2c34.528 37.119 100.29 59.472 171.84 53.812 56.002-4.4296 103.55-25.073 132.59-53.812" fill="#f9faee" fill-rule="evenodd" stroke="#8c8d86"/>
  <path d="m231.22 1459.2c36.858 26.611 92.55 41.412 152.28 36.688 44.108-3.4888 82.973-17.05 111.69-36.688" fill="url(#c)" fill-rule="evenodd" stroke="#8c8d86"/>
  <path d="m42.403 852.41h663.77a8.0803 9.43 0 0 1 8.0803 9.43v587.93a8.0803 9.43 0 0 1 -8.0803 9.43h-663.77a8.0803 9.43 0 0 1 -8.0803 -9.43v-587.93a8.0803 9.43 0 0 1 8.0803 -9.43" fill="#f9faee" fill-rule="evenodd" stroke="#8c8d86" stroke-width="1.0802"/>
  <g stroke="#8c8c86">
   <g transform="translate(4.1971)" fill="none">
    <path d="m142.51 1372.6h6.8808a2.6307 2.6307 0 0 1 2.6307 2.6307v3.1508a2.6307 2.6307 0 0 1 -2.6307 2.6307h-6.8808a2.6307 2.6307 0 0 1 -2.6307 -2.6307v-3.1508a2.6307 2.6307 0 0 1 2.6307 -2.6307"/>
    <path d="m150.66 1375.1h2.835a1.0839 1.0839 0 0 1 1.0839 1.0839v1.2982a1.0839 1.0839 0 0 1 -1.0839 1.0839h-2.835a1.0839 1.0839 0 0 1 -1.0839 -1.0839v-1.2982a1.0839 1.0839 0 0 1 1.0839 -1.0839"/>
   </g>
   <g transform="translate(92.615 .87842)" fill="none">
    <path d="m142.51 1372.6h6.8808a2.6307 2.6307 0 0 1 2.6307 2.6307v3.1508a2.6307 2.6307 0 0 1 -2.6307 2.6307h-6.8808a2.6307 2.6307 0 0 1 -2.6307 -2.6307v-3.1508a2.6307 2.6307 0 0 1 2.6307 -2.6307"/>
    <path d="m144.47 1370.9h2.835a1.0839 1.0839 0 0 1 1.0839 1.0839v1.2982a1.0839 1.0839 0 0 1 -1.0839 1.0839h-2.835a1.0839 1.0839 0 0 1 -1.0839 -1.0839v-1.2982a1.0839 1.0839 0 0 1 1.0839 -1.0839"/>
   </g>
   <g transform="translate(.56514)">
    <path d="m191 1372.6h6.8808a2.6307 2.6307 0 0 1 2.6307 2.6307v3.1508a2.6307 2.6307 0 0 1 -2.6307 2.6307h-6.8808a2.6307 2.6307 0 0 1 -2.6307 -2.6307v-3.1508a2.6307 2.6307 0 0 1 2.6307 -2.6307" fill="none"/>
    <path transform="matrix(.99504 .0995 -.0995 .99504 168.14 94.062)" d="m157.83633,1274.1605-.0713-.7796-.0713-.7796 .71079.328 .71079.3281-.6395.4515-.6395.4516z" fill="#ff0" fill-rule="evenodd"/>
    <path transform="matrix(-.99504 .0995 .0995 .99504 220.86 94.062)" d="m157.83633,1274.1605-.0713-.7796-.0713-.7796 .71079.328 .71079.3281-.6395.4515-.6395.4516z" fill="#ff0" fill-rule="evenodd"/>
   </g>
   <g transform="matrix(0 1 -1 0 1661.9 1090.7)">
    <g stroke="#8c8c86">
     <path transform="matrix(0 -1 1 0 -1090.7 1662.9)" d="m282.6 1372.6h6.8808a2.6307 2.6307 0 0 1 2.6307 2.6307v3.1508a2.6307 2.6307 0 0 1 -2.6307 2.6307h-6.8808a2.6307 2.6307 0 0 1 -2.6307 -2.6307v-3.1508a2.6307 2.6307 0 0 1 2.6307 -2.6307" fill="none"/>
     <path transform="matrix(.99504 .0995 -.0995 .99504 257.74 94.062)" d="m157.83633,1274.1605-.0713-.7796-.0713-.7796 .71079.328 .71079.3281-.6395.4515-.6395.4516z" fill="#ff0" fill-rule="evenodd"/>
     <path transform="matrix(-.99504 .0995 .0995 .99504 314.3 94.062)" d="m157.83633,1274.1605-.0713-.7796-.0713-.7796 .71079.328 .71079.3281-.6395.4515-.6395.4516z" fill="#ff0" fill-rule="evenodd"/>
    </g>
   </g>
   <g fill="none">
    <path transform="translate(33.783 103.29)" d="m116.44 1313.9v9.5402h46.031v-9.5402"/>
    <path d="m167.56 1427.6h12.142c-2.1266 2.8041-1.6714 5.6082 0 8.4123h-12.142c1.5787-2.5786 1.7527-5.3578 0-8.4123z"/>
   </g>
  </g>
  <path d="m99.677 1390h553.26a6.7351 0.42176 0 0 1 6.7351 0.42176v26.295a6.7351 0.42176 0 0 1 -6.7351 0.42176h-553.26a6.7351 0.42176 0 0 1 -6.7351 -0.42176v-26.295a6.7351 0.42176 0 0 1 6.7351 -0.42176" fill="url(#f)" fill-rule="evenodd"/>
  <path d="m79.878 1389.4h36.023a7.5243 0.26109 0 0 1 7.5243 0.26109v27.335a7.5243 0.26109 0 0 1 -7.5243 0.26109h-36.023a7.5243 0.26109 0 0 1 -7.5243 -0.26109v-27.335a7.5243 0.26109 0 0 1 7.5243 -0.26109" fill="url(#e)" fill-rule="evenodd"/>
  <path transform="scale(-1,1)" d="m-678.76 1389.4h36.023a7.5243 0.26109 0 0 1 7.5243 0.26109v27.335a7.5243 0.26109 0 0 1 -7.5243 0.26109h-36.023a7.5243 0.26109 0 0 1 -7.5243 -0.26109v-27.335a7.5243 0.26109 0 0 1 7.5243 -0.26109" fill="url(#d)" fill-rule="evenodd"/>
  <path transform="translate(33.783 103.29)" d="m105.56 1295.8v8.9374h24.156v-8.9374h-24.156zm43.594 0v8.9374h24.125v-8.9374h-24.125zm43.562 0v8.9374h24.125v-8.9374h-24.125zm46.438 0v8.9374h24.125v-8.9374h-24.125z" fill="#ccc" fill-rule="evenodd"/>
  <path d="m350.28 1390.7h22.969a6.7381 0.35229 0 0 1 6.7381 0.35229v24.951a6.7381 0.35229 0 0 1 -6.7381 0.35229h-22.969a6.7381 0.35229 0 0 1 -6.7381 -0.35229v-24.951a6.7381 0.35229 0 0 1 6.7381 -0.35229" fill="none" opacity=".43145" stroke="#000" stroke-width=".91415"/>
  <text x="352.49582" y="1416.463" fill="#8c8d86" font-family="FreeSerif" font-size="57.218">
   <tspan x="352.49582" y="1416.463">-</tspan>
  </text>
  <path d="m397.44 1390.1h22.969a6.7381 0.35229 0 0 1 6.7381 0.35229v24.951a6.7381 0.35229 0 0 1 -6.7381 0.35229h-22.969a6.7381 0.35229 0 0 1 -6.7381 -0.35229v-24.951a6.7381 0.35229 0 0 1 6.7381 -0.35229" fill="none" opacity=".43145" stroke="#000" stroke-width=".91415"/>
  <text x="398.8956" y="1411.9653" fill="#8c8d86" font-family="FreeSerif" font-size="35.579">
   <tspan x="398.8956" y="1411.9653">+</tspan>
  </text>
  <path d="m443.18 1390.1h22.969a6.7381 0.35229 0 0 1 6.7381 0.35229v24.951a6.7381 0.35229 0 0 1 -6.7381 0.35229h-22.969a6.7381 0.35229 0 0 1 -6.7381 -0.35229v-24.951a6.7381 0.35229 0 0 1 6.7381 -0.35229" fill="none" opacity=".43145" stroke="#000" stroke-width=".91415"/>
  <text x="439.66415" y="1405.6521" fill="#8c8d86" font-family="FreeSerif" font-size="8.1218">
   <tspan x="439.66415" y="1405.6521">SELECT</tspan>
  </text>
  <path d="m551.76 1399.2v8.9358h24.166v-8.9358h-24.166z" fill="#d4ff0d" fill-rule="evenodd" stroke="#ff0"/>
  <path d="m593.89 1390.1h22.969a6.7381 0.35229 0 0 1 6.7381 0.35229v24.951a6.7381 0.35229 0 0 1 -6.7381 0.35229h-22.969a6.7381 0.35229 0 0 1 -6.7381 -0.35229v-24.951a6.7381 0.35229 0 0 1 6.7381 -0.35229" fill="none" opacity=".43145" stroke="#000" stroke-width=".91415"/>
  <path transform="matrix(.60798 0 0 .60798 260.84 612.74)" d="m579.07 1299.5c0 6.8342-5.5402 12.374-12.374 12.374s-12.374-5.5402-12.374-12.374 5.5402-12.374 12.374-12.374 12.374 5.5402 12.374 12.374z" fill="none" stroke="#777771"/>
  <path d="m605.37775,1397.2678h2e-005a.3432,.4381 0 0,1 .3432.4381v10.25754a.3432,.4381 0 0,1 -.3432.4381h-2e-005a.3432,.4381 0 0,1 -.3432-.4381v-10.25754a.3432,.4381 0 0,1 .3432-.4381" fill="none" opacity=".43145" stroke="#000" stroke-width=".71767"/>
  <path d="m52.625 913.6c-2.0764 0-3.945 0.71391-5.3438 1.875l46.656 27.719c1.1012-2.0002 3.3874-3.375 6.0312-3.375h552.69c2.7685 0 5.1213 1.5009 6.1562 3.6562l44.031-26.156c-1.3077-2.2084-3.8866-3.7188-6.9062-3.7188h-643.31z" fill="#cfd0c5" fill-rule="evenodd"/>
  <path d="m658.47 1329c-1.1592 1.8275-3.3099 3.0625-5.8125 3.0625h-552.69c-2.3828 0-4.4614-1.1288-5.6562-2.8125l-47.812 28.406c1.4317 1.6092 3.6231 2.625 6.125 2.625h643.31c3.4332 0 6.3128-1.9415 7.375-4.6562l-44.844-26.625z" fill="#cfd0c5" fill-rule="evenodd"/>
  <path d="m47.281 915.48c-1.1204 0.93228-1.9345 2.1484-2.2812 3.5312v435.81c0.25807 1.0509 0.77477 2.0014 1.5 2.8125l47.812-28.406c-0.67789-0.9499-1.0938-2.0631-1.0938-3.2813v-380.03c0-0.98171 0.2648-1.8992 0.71875-2.7188l-46.656-27.719z" fill="#e1e2d7"/>
  <path d="m702.84 917.32-44.031 26.156c0.35756 0.74636 0.5625 1.5687 0.5625 2.4375v380.03c0 1.1096-0.34033 2.1372-0.90625 3.0313l44.844 26.625c0.27797-0.7146 0.4375-1.4801 0.4375-2.2813v-432.78c0-1.1668-0.33949-2.256-0.90625-3.2188z" fill="#e1e2d7"/>
  <path d="m99.962 939.81h552.69a6.7281 6.0956 0 0 1 6.7281 6.0956v380.04a6.7281 6.0956 0 0 1 -6.7281 6.0956h-552.69a6.7281 6.0956 0 0 1 -6.7281 -6.0956v-380.04a6.7281 6.0956 0 0 1 6.7281 -6.0956" fill="#223649" fill-rule="evenodd" stroke="#000" stroke-width=".79246"/>
  <path d="m99.962 939.81h552.69a6.7281 6.0956 0 0 1 6.7281 6.0956v380.04a6.7281 6.0956 0 0 1 -6.7281 6.0956h-552.69a6.7281 6.0956 0 0 1 -6.7281 -6.0956v-380.04a6.7281 6.0956 0 0 1 6.7281 -6.0956" fill="url(#b)" fill-rule="evenodd" stroke="#000" stroke-width=".79246"/>
 </g>
</svg>
