<?xml version="1.0" standalone="no"?>
<!DOCTYPE svg PUBLIC "-//W3C//DTD SVG 20010904//EN"
 "http://www.w3.org/TR/2001/REC-SVG-20010904/DTD/svg10.dtd">
<svg version="1.0" xmlns="http://www.w3.org/2000/svg"
 width="512.000000pt" height="512.000000pt" viewBox="0 0 512.000000 512.000000"
 preserveAspectRatio="xMidYMid meet">

<g transform="translate(0.000000,512.000000) scale(0.100000,-0.100000)"
fill="#000000" stroke="none">
<path d="M2320 5109 c-491 -47 -981 -246 -1366 -557 -599 -482 -954 -1224
-954 -1992 0 -767 356 -1511 950 -1989 284 -229 634 -404 980 -491 605 -152
1212 -87 1769 191 509 253 897 641 1150 1150 345 692 361 1469 46 2189 -20 47
-43 110 -50 140 -66 280 -144 426 -330 618 -139 144 -289 240 -474 303 -30 11
-100 46 -156 79 -420 248 -876 373 -1345 369 -74 -1 -173 -5 -220 -10z m510
-470 c107 -26 213 -77 312 -151 42 -32 83 -58 90 -58 8 0 41 9 74 21 207 74
498 77 669 8 276 -112 447 -264 563 -500 61 -125 80 -191 98 -329 11 -88 11
-123 -1 -220 -8 -63 -21 -133 -29 -155 -8 -22 -15 -46 -16 -53 0 -7 -16 -47
-36 -87 l-36 -74 20 -33 c42 -67 80 -155 103 -233 30 -106 33 -270 5 -365 -25
-88 -57 -172 -73 -191 -7 -8 -13 -20 -13 -26 0 -6 -16 -32 -36 -59 -87 -116
-197 -210 -317 -269 -36 -18 -59 -36 -62 -49 -3 -12 -12 -61 -20 -109 -8 -49
-22 -98 -30 -110 -8 -12 -15 -28 -15 -37 0 -22 -77 -136 -124 -184 -58 -59
-123 -107 -181 -135 -27 -13 -63 -30 -80 -38 -82 -41 -334 -39 -431 2 -106 46
-198 102 -252 153 -27 25 -41 18 -88 -48 -72 -101 -204 -204 -314 -247 -90
-35 -215 -47 -328 -33 -80 10 -113 20 -192 59 -79 38 -110 60 -180 131 -69 68
-94 102 -127 170 -41 83 -72 195 -81 293 -2 29 -10 51 -18 54 -8 3 -45 -4 -82
-15 -106 -33 -218 -43 -335 -31 -56 6 -114 17 -129 24 -15 7 -41 16 -58 20
-102 22 -290 168 -378 293 -35 50 -102 189 -102 212 0 11 -7 37 -16 58 -20 49
-29 212 -15 282 19 96 39 158 71 226 48 100 71 130 185 241 58 55 105 107 105
115 0 8 -13 32 -30 55 -49 67 -107 193 -130 284 -26 103 -24 257 4 359 20 72
86 219 117 259 41 53 153 162 195 192 61 42 152 86 232 112 57 19 89 22 217
22 165 0 202 -8 351 -81 102 -49 103 -49 186 44 105 117 254 201 418 236 141
29 197 28 340 -5z m-1677 -3375 c23 -4 54 -21 82 -46 145 -128 53 -368 -141
-368 -144 0 -240 119 -208 257 29 124 125 180 267 157z"/>
<path d="M440 798 c-66 -30 -115 -72 -147 -126 -25 -43 -28 -56 -28 -138 1
-89 2 -94 37 -147 21 -31 59 -70 85 -89 47 -32 51 -33 148 -33 107 0 140 11
208 74 78 71 105 218 57 315 -68 135 -236 202 -360 144z m182 -187 c53 -59 45
-122 -21 -167 -51 -34 -90 -32 -133 10 -47 46 -54 76 -28 126 39 76 128 91
182 31z"/>
</g>
</svg>
